<svg xmlns="http://www.w3.org/2000/svg" viewBox="0 0 100 100">
  <defs>
    <linearGradient id="grad1" x1="0%" y1="0%" x2="100%" y2="100%">
      <stop offset="0%" style="stop-color:#8b5cf6 drop-opacity:1" />
      <stop offset="100%" style="stop-color:#06b6d4;stop-opacity:1" />
    </linearGradient>
  </defs>
  <rect width="100" height="100" rx="20" fill="url(#grad1)" />
  <path d="M50 15c-19.3 0-35 15.7-35 35s15.7 35 35 35 35-15.7 35-35-15.7-35-35-35zm0 64c-16 0-29-13-29-29s13-29 29-29 29 13 29 29-13 29-29 29zm1-52.8v47.6c7.9-2.3 14-9.1 16.3-17h-8.3c-.4 2.8-1.5 5.5-3.3 7.8V51h4.2c.2-2.1.2-4.2 0-6.3h-4.2V26.2c1.8 2.3 2.9 5 3.3 7.8h8.3c-2.3-7.9-8.4-14.7-16.3-17zM49 26.2v18.5h-4.2c-.2 2.1-.2 4.2 0 6.3h4.2v18.5c-1.8-2.3-2.9-5-3.3-7.8h-8.3c2.3 7.9 8.4 14.7 16.3 17V31.2c-7.9 2.3-14 9.1-16.3 17h8.3c.4-2.8 1.5-5.5 3.3-7.8z" fill="white" />
</svg>
